<?xml version="1.0" encoding="utf-8" standalone="no"?>
<!DOCTYPE svg PUBLIC "-//W3C//DTD SVG 1.1//EN"
  "http://www.w3.org/Graphics/SVG/1.1/DTD/svg11.dtd">
<!-- Created with matplotlib (https://matplotlib.org/) -->
<svg height="597.938828pt" version="1.1" viewBox="0 0 1213.985 597.938828" width="1213.985pt" xmlns="http://www.w3.org/2000/svg" xmlns:xlink="http://www.w3.org/1999/xlink">
 <defs>
  <style type="text/css">
*{stroke-linecap:butt;stroke-linejoin:round;}
  </style>
 </defs>
 <g id="figure_1">
  <g id="patch_1">
   <path d="M 0 597.938828 
L 1213.985 597.938828 
L 1213.985 0 
L 0 0 
z
" style="fill:#ffffff;"/>
  </g>
  <g id="axes_1">
   <g id="matplotlib.axis_1">
    <g id="ytick_1">
     <g id="line2d_1">
      <path clip-path="url(#pfd0c7636b3)" d="M 46.31125 554.979141 
L 1162.31125 554.979141 
" style="fill:none;stroke:#ffffff;stroke-linecap:round;"/>
     </g>
     <g id="line2d_2">
      <defs>
       <path d="M 0 0 
L 6 0 
" id="mfceca127d9" style="stroke:#262626;stroke-width:1.25;"/>
      </defs>
      <g>
       <use style="fill:#262626;stroke:#262626;stroke-width:1.25;" x="1162.31125" xlink:href="#mfceca127d9" y="554.979141"/>
      </g>
     </g>
     <g id="text_1">
      <!-- $\mathdefault{10^{0}}$ -->
      <defs>
       <path d="M 12.40625 8.296875 
L 28.515625 8.296875 
L 28.515625 63.921875 
L 10.984375 60.40625 
L 10.984375 69.390625 
L 28.421875 72.90625 
L 38.28125 72.90625 
L 38.28125 8.296875 
L 54.390625 8.296875 
L 54.390625 0 
L 12.40625 0 
z
" id="DejaVuSans-49"/>
       <path d="M 31.78125 66.40625 
Q 24.171875 66.40625 20.328125 58.90625 
Q 16.5 51.421875 16.5 36.375 
Q 16.5 21.390625 20.328125 13.890625 
Q 24.171875 6.390625 31.78125 6.390625 
Q 39.453125 6.390625 43.28125 13.890625 
Q 47.125 21.390625 47.125 36.375 
Q 47.125 51.421875 43.28125 58.90625 
Q 39.453125 66.40625 31.78125 66.40625 
z
M 31.78125 74.21875 
Q 44.046875 74.21875 50.515625 64.515625 
Q 56.984375 54.828125 56.984375 36.375 
Q 56.984375 17.96875 50.515625 8.265625 
Q 44.046875 -1.421875 31.78125 -1.421875 
Q 19.53125 -1.421875 13.0625 8.265625 
Q 6.59375 17.96875 6.59375 36.375 
Q 6.59375 54.828125 13.0625 64.515625 
Q 19.53125 74.21875 31.78125 74.21875 
z
" id="DejaVuSans-48"/>
      </defs>
      <g style="fill:#262626;" transform="translate(1171.81125 559.158281)scale(0.11 -0.11)">
       <use transform="translate(0 0.765625)" xlink:href="#DejaVuSans-49"/>
       <use transform="translate(63.623047 0.765625)" xlink:href="#DejaVuSans-48"/>
       <use transform="translate(128.203125 39.046875)scale(0.7)" xlink:href="#DejaVuSans-48"/>
      </g>
     </g>
    </g>
    <g id="ytick_2">
     <g id="line2d_3">
      <path clip-path="url(#pfd0c7636b3)" d="M 46.31125 477.321998 
L 1162.31125 477.321998 
" style="fill:none;stroke:#ffffff;stroke-linecap:round;"/>
     </g>
     <g id="line2d_4">
      <g>
       <use style="fill:#262626;stroke:#262626;stroke-width:1.25;" x="1162.31125" xlink:href="#mfceca127d9" y="477.321998"/>
      </g>
     </g>
     <g id="text_2">
      <!-- $\mathdefault{10^{1}}$ -->
      <g style="fill:#262626;" transform="translate(1171.81125 481.501138)scale(0.11 -0.11)">
       <use transform="translate(0 0.684375)" xlink:href="#DejaVuSans-49"/>
       <use transform="translate(63.623047 0.684375)" xlink:href="#DejaVuSans-48"/>
       <use transform="translate(128.203125 38.965625)scale(0.7)" xlink:href="#DejaVuSans-49"/>
      </g>
     </g>
    </g>
    <g id="ytick_3">
     <g id="line2d_5">
      <path clip-path="url(#pfd0c7636b3)" d="M 46.31125 399.664855 
L 1162.31125 399.664855 
" style="fill:none;stroke:#ffffff;stroke-linecap:round;"/>
     </g>
     <g id="line2d_6">
      <g>
       <use style="fill:#262626;stroke:#262626;stroke-width:1.25;" x="1162.31125" xlink:href="#mfceca127d9" y="399.664855"/>
      </g>
     </g>
     <g id="text_3">
      <!-- $\mathdefault{10^{2}}$ -->
      <defs>
       <path d="M 19.1875 8.296875 
L 53.609375 8.296875 
L 53.609375 0 
L 7.328125 0 
L 7.328125 8.296875 
Q 12.9375 14.109375 22.625 23.890625 
Q 32.328125 33.6875 34.8125 36.53125 
Q 39.546875 41.84375 41.421875 45.53125 
Q 43.3125 49.21875 43.3125 52.78125 
Q 43.3125 58.59375 39.234375 62.25 
Q 35.15625 65.921875 28.609375 65.921875 
Q 23.96875 65.921875 18.8125 64.3125 
Q 13.671875 62.703125 7.8125 59.421875 
L 7.8125 69.390625 
Q 13.765625 71.78125 18.9375 73 
Q 24.125 74.21875 28.421875 74.21875 
Q 39.75 74.21875 46.484375 68.546875 
Q 53.21875 62.890625 53.21875 53.421875 
Q 53.21875 48.921875 51.53125 44.890625 
Q 49.859375 40.875 45.40625 35.40625 
Q 44.1875 33.984375 37.640625 27.21875 
Q 31.109375 20.453125 19.1875 8.296875 
z
" id="DejaVuSans-50"/>
      </defs>
      <g style="fill:#262626;" transform="translate(1171.81125 403.843996)scale(0.11 -0.11)">
       <use transform="translate(0 0.765625)" xlink:href="#DejaVuSans-49"/>
       <use transform="translate(63.623047 0.765625)" xlink:href="#DejaVuSans-48"/>
       <use transform="translate(128.203125 39.046875)scale(0.7)" xlink:href="#DejaVuSans-50"/>
      </g>
     </g>
    </g>
    <g id="ytick_4">
     <g id="line2d_7">
      <path clip-path="url(#pfd0c7636b3)" d="M 46.31125 322.007712 
L 1162.31125 322.007712 
" style="fill:none;stroke:#ffffff;stroke-linecap:round;"/>
     </g>
     <g id="line2d_8">
      <g>
       <use style="fill:#262626;stroke:#262626;stroke-width:1.25;" x="1162.31125" xlink:href="#mfceca127d9" y="322.007712"/>
      </g>
     </g>
     <g id="text_4">
      <!-- $\mathdefault{10^{3}}$ -->
      <defs>
       <path d="M 40.578125 39.3125 
Q 47.65625 37.796875 51.625 33 
Q 55.609375 28.21875 55.609375 21.1875 
Q 55.609375 10.40625 48.1875 4.484375 
Q 40.765625 -1.421875 27.09375 -1.421875 
Q 22.515625 -1.421875 17.65625 -0.515625 
Q 12.796875 0.390625 7.625 2.203125 
L 7.625 11.71875 
Q 11.71875 9.328125 16.59375 8.109375 
Q 21.484375 6.890625 26.8125 6.890625 
Q 36.078125 6.890625 40.9375 10.546875 
Q 45.796875 14.203125 45.796875 21.1875 
Q 45.796875 27.640625 41.28125 31.265625 
Q 36.765625 34.90625 28.71875 34.90625 
L 20.21875 34.90625 
L 20.21875 43.015625 
L 29.109375 43.015625 
Q 36.375 43.015625 40.234375 45.921875 
Q 44.09375 48.828125 44.09375 54.296875 
Q 44.09375 59.90625 40.109375 62.90625 
Q 36.140625 65.921875 28.71875 65.921875 
Q 24.65625 65.921875 20.015625 65.03125 
Q 15.375 64.15625 9.8125 62.3125 
L 9.8125 71.09375 
Q 15.4375 72.65625 20.34375 73.4375 
Q 25.25 74.21875 29.59375 74.21875 
Q 40.828125 74.21875 47.359375 69.109375 
Q 53.90625 64.015625 53.90625 55.328125 
Q 53.90625 49.265625 50.4375 45.09375 
Q 46.96875 40.921875 40.578125 39.3125 
z
" id="DejaVuSans-51"/>
      </defs>
      <g style="fill:#262626;" transform="translate(1171.81125 326.186853)scale(0.11 -0.11)">
       <use transform="translate(0 0.765625)" xlink:href="#DejaVuSans-49"/>
       <use transform="translate(63.623047 0.765625)" xlink:href="#DejaVuSans-48"/>
       <use transform="translate(128.203125 39.046875)scale(0.7)" xlink:href="#DejaVuSans-51"/>
      </g>
     </g>
    </g>
    <g id="ytick_5">
     <g id="line2d_9">
      <path clip-path="url(#pfd0c7636b3)" d="M 46.31125 244.350569 
L 1162.31125 244.350569 
" style="fill:none;stroke:#ffffff;stroke-linecap:round;"/>
     </g>
     <g id="line2d_10">
      <g>
       <use style="fill:#262626;stroke:#262626;stroke-width:1.25;" x="1162.31125" xlink:href="#mfceca127d9" y="244.350569"/>
      </g>
     </g>
     <g id="text_5">
      <!-- $\mathdefault{10^{4}}$ -->
      <defs>
       <path d="M 37.796875 64.3125 
L 12.890625 25.390625 
L 37.796875 25.390625 
z
M 35.203125 72.90625 
L 47.609375 72.90625 
L 47.609375 25.390625 
L 58.015625 25.390625 
L 58.015625 17.1875 
L 47.609375 17.1875 
L 47.609375 0 
L 37.796875 0 
L 37.796875 17.1875 
L 4.890625 17.1875 
L 4.890625 26.703125 
z
" id="DejaVuSans-52"/>
      </defs>
      <g style="fill:#262626;" transform="translate(1171.81125 248.52971)scale(0.11 -0.11)">
       <use transform="translate(0 0.684375)" xlink:href="#DejaVuSans-49"/>
       <use transform="translate(63.623047 0.684375)" xlink:href="#DejaVuSans-48"/>
       <use transform="translate(128.203125 38.965625)scale(0.7)" xlink:href="#DejaVuSans-52"/>
      </g>
     </g>
    </g>
    <g id="ytick_6">
     <g id="line2d_11">
      <path clip-path="url(#pfd0c7636b3)" d="M 46.31125 166.693426 
L 1162.31125 166.693426 
" style="fill:none;stroke:#ffffff;stroke-linecap:round;"/>
     </g>
     <g id="line2d_12">
      <g>
       <use style="fill:#262626;stroke:#262626;stroke-width:1.25;" x="1162.31125" xlink:href="#mfceca127d9" y="166.693426"/>
      </g>
     </g>
     <g id="text_6">
      <!-- $\mathdefault{10^{5}}$ -->
      <defs>
       <path d="M 10.796875 72.90625 
L 49.515625 72.90625 
L 49.515625 64.59375 
L 19.828125 64.59375 
L 19.828125 46.734375 
Q 21.96875 47.46875 24.109375 47.828125 
Q 26.265625 48.1875 28.421875 48.1875 
Q 40.625 48.1875 47.75 41.5 
Q 54.890625 34.8125 54.890625 23.390625 
Q 54.890625 11.625 47.5625 5.09375 
Q 40.234375 -1.421875 26.90625 -1.421875 
Q 22.3125 -1.421875 17.546875 -0.640625 
Q 12.796875 0.140625 7.71875 1.703125 
L 7.71875 11.625 
Q 12.109375 9.234375 16.796875 8.0625 
Q 21.484375 6.890625 26.703125 6.890625 
Q 35.15625 6.890625 40.078125 11.328125 
Q 45.015625 15.765625 45.015625 23.390625 
Q 45.015625 31 40.078125 35.4375 
Q 35.15625 39.890625 26.703125 39.890625 
Q 22.75 39.890625 18.8125 39.015625 
Q 14.890625 38.140625 10.796875 36.28125 
z
" id="DejaVuSans-53"/>
      </defs>
      <g style="fill:#262626;" transform="translate(1171.81125 170.872567)scale(0.11 -0.11)">
       <use transform="translate(0 0.684375)" xlink:href="#DejaVuSans-49"/>
       <use transform="translate(63.623047 0.684375)" xlink:href="#DejaVuSans-48"/>
       <use transform="translate(128.203125 38.965625)scale(0.7)" xlink:href="#DejaVuSans-53"/>
      </g>
     </g>
    </g>
    <g id="ytick_7">
     <g id="line2d_13">
      <path clip-path="url(#pfd0c7636b3)" d="M 46.31125 89.036283 
L 1162.31125 89.036283 
" style="fill:none;stroke:#ffffff;stroke-linecap:round;"/>
     </g>
     <g id="line2d_14">
      <g>
       <use style="fill:#262626;stroke:#262626;stroke-width:1.25;" x="1162.31125" xlink:href="#mfceca127d9" y="89.036283"/>
      </g>
     </g>
     <g id="text_7">
      <!-- $\mathdefault{10^{6}}$ -->
      <defs>
       <path d="M 33.015625 40.375 
Q 26.375 40.375 22.484375 35.828125 
Q 18.609375 31.296875 18.609375 23.390625 
Q 18.609375 15.53125 22.484375 10.953125 
Q 26.375 6.390625 33.015625 6.390625 
Q 39.65625 6.390625 43.53125 10.953125 
Q 47.40625 15.53125 47.40625 23.390625 
Q 47.40625 31.296875 43.53125 35.828125 
Q 39.65625 40.375 33.015625 40.375 
z
M 52.59375 71.296875 
L 52.59375 62.3125 
Q 48.875 64.0625 45.09375 64.984375 
Q 41.3125 65.921875 37.59375 65.921875 
Q 27.828125 65.921875 22.671875 59.328125 
Q 17.53125 52.734375 16.796875 39.40625 
Q 19.671875 43.65625 24.015625 45.921875 
Q 28.375 48.1875 33.59375 48.1875 
Q 44.578125 48.1875 50.953125 41.515625 
Q 57.328125 34.859375 57.328125 23.390625 
Q 57.328125 12.15625 50.6875 5.359375 
Q 44.046875 -1.421875 33.015625 -1.421875 
Q 20.359375 -1.421875 13.671875 8.265625 
Q 6.984375 17.96875 6.984375 36.375 
Q 6.984375 53.65625 15.1875 63.9375 
Q 23.390625 74.21875 37.203125 74.21875 
Q 40.921875 74.21875 44.703125 73.484375 
Q 48.484375 72.75 52.59375 71.296875 
z
" id="DejaVuSans-54"/>
      </defs>
      <g style="fill:#262626;" transform="translate(1171.81125 93.215424)scale(0.11 -0.11)">
       <use transform="translate(0 0.765625)" xlink:href="#DejaVuSans-49"/>
       <use transform="translate(63.623047 0.765625)" xlink:href="#DejaVuSans-48"/>
       <use transform="translate(128.203125 39.046875)scale(0.7)" xlink:href="#DejaVuSans-54"/>
      </g>
     </g>
    </g>
    <g id="ytick_8">
     <g id="line2d_15">
      <path clip-path="url(#pfd0c7636b3)" d="M 46.31125 11.379141 
L 1162.31125 11.379141 
" style="fill:none;stroke:#ffffff;stroke-linecap:round;"/>
     </g>
     <g id="line2d_16">
      <g>
       <use style="fill:#262626;stroke:#262626;stroke-width:1.25;" x="1162.31125" xlink:href="#mfceca127d9" y="11.379141"/>
      </g>
     </g>
     <g id="text_8">
      <!-- $\mathdefault{10^{7}}$ -->
      <defs>
       <path d="M 8.203125 72.90625 
L 55.078125 72.90625 
L 55.078125 68.703125 
L 28.609375 0 
L 18.3125 0 
L 43.21875 64.59375 
L 8.203125 64.59375 
z
" id="DejaVuSans-55"/>
      </defs>
      <g style="fill:#262626;" transform="translate(1171.81125 15.558281)scale(0.11 -0.11)">
       <use transform="translate(0 0.684375)" xlink:href="#DejaVuSans-49"/>
       <use transform="translate(63.623047 0.684375)" xlink:href="#DejaVuSans-48"/>
       <use transform="translate(128.203125 38.965625)scale(0.7)" xlink:href="#DejaVuSans-55"/>
      </g>
     </g>
    </g>
    <g id="ytick_9">
     <g id="line2d_17">
      <defs>
       <path d="M 0 0 
L 4 0 
" id="m7b7c0b286d" style="stroke:#262626;"/>
      </defs>
      <g>
       <use style="fill:#262626;stroke:#262626;" x="1162.31125" xlink:href="#m7b7c0b286d" y="531.602011"/>
      </g>
     </g>
    </g>
    <g id="ytick_10">
     <g id="line2d_18">
      <g>
       <use style="fill:#262626;stroke:#262626;" x="1162.31125" xlink:href="#m7b7c0b286d" y="517.927267"/>
      </g>
     </g>
    </g>
    <g id="ytick_11">
     <g id="line2d_19">
      <g>
       <use style="fill:#262626;stroke:#262626;" x="1162.31125" xlink:href="#m7b7c0b286d" y="508.224882"/>
      </g>
     </g>
    </g>
    <g id="ytick_12">
     <g id="line2d_20">
      <g>
       <use style="fill:#262626;stroke:#262626;" x="1162.31125" xlink:href="#m7b7c0b286d" y="500.699127"/>
      </g>
     </g>
    </g>
    <g id="ytick_13">
     <g id="line2d_21">
      <g>
       <use style="fill:#262626;stroke:#262626;" x="1162.31125" xlink:href="#m7b7c0b286d" y="494.550138"/>
      </g>
     </g>
    </g>
    <g id="ytick_14">
     <g id="line2d_22">
      <g>
       <use style="fill:#262626;stroke:#262626;" x="1162.31125" xlink:href="#m7b7c0b286d" y="489.351241"/>
      </g>
     </g>
    </g>
    <g id="ytick_15">
     <g id="line2d_23">
      <g>
       <use style="fill:#262626;stroke:#262626;" x="1162.31125" xlink:href="#m7b7c0b286d" y="484.847752"/>
      </g>
     </g>
    </g>
    <g id="ytick_16">
     <g id="line2d_24">
      <g>
       <use style="fill:#262626;stroke:#262626;" x="1162.31125" xlink:href="#m7b7c0b286d" y="480.875394"/>
      </g>
     </g>
    </g>
    <g id="ytick_17">
     <g id="line2d_25">
      <g>
       <use style="fill:#262626;stroke:#262626;" x="1162.31125" xlink:href="#m7b7c0b286d" y="453.944868"/>
      </g>
     </g>
    </g>
    <g id="ytick_18">
     <g id="line2d_26">
      <g>
       <use style="fill:#262626;stroke:#262626;" x="1162.31125" xlink:href="#m7b7c0b286d" y="440.270124"/>
      </g>
     </g>
    </g>
    <g id="ytick_19">
     <g id="line2d_27">
      <g>
       <use style="fill:#262626;stroke:#262626;" x="1162.31125" xlink:href="#m7b7c0b286d" y="430.567739"/>
      </g>
     </g>
    </g>
    <g id="ytick_20">
     <g id="line2d_28">
      <g>
       <use style="fill:#262626;stroke:#262626;" x="1162.31125" xlink:href="#m7b7c0b286d" y="423.041984"/>
      </g>
     </g>
    </g>
    <g id="ytick_21">
     <g id="line2d_29">
      <g>
       <use style="fill:#262626;stroke:#262626;" x="1162.31125" xlink:href="#m7b7c0b286d" y="416.892995"/>
      </g>
     </g>
    </g>
    <g id="ytick_22">
     <g id="line2d_30">
      <g>
       <use style="fill:#262626;stroke:#262626;" x="1162.31125" xlink:href="#m7b7c0b286d" y="411.694099"/>
      </g>
     </g>
    </g>
    <g id="ytick_23">
     <g id="line2d_31">
      <g>
       <use style="fill:#262626;stroke:#262626;" x="1162.31125" xlink:href="#m7b7c0b286d" y="407.19061"/>
      </g>
     </g>
    </g>
    <g id="ytick_24">
     <g id="line2d_32">
      <g>
       <use style="fill:#262626;stroke:#262626;" x="1162.31125" xlink:href="#m7b7c0b286d" y="403.218251"/>
      </g>
     </g>
    </g>
    <g id="ytick_25">
     <g id="line2d_33">
      <g>
       <use style="fill:#262626;stroke:#262626;" x="1162.31125" xlink:href="#m7b7c0b286d" y="376.287726"/>
      </g>
     </g>
    </g>
    <g id="ytick_26">
     <g id="line2d_34">
      <g>
       <use style="fill:#262626;stroke:#262626;" x="1162.31125" xlink:href="#m7b7c0b286d" y="362.612981"/>
      </g>
     </g>
    </g>
    <g id="ytick_27">
     <g id="line2d_35">
      <g>
       <use style="fill:#262626;stroke:#262626;" x="1162.31125" xlink:href="#m7b7c0b286d" y="352.910596"/>
      </g>
     </g>
    </g>
    <g id="ytick_28">
     <g id="line2d_36">
      <g>
       <use style="fill:#262626;stroke:#262626;" x="1162.31125" xlink:href="#m7b7c0b286d" y="345.384841"/>
      </g>
     </g>
    </g>
    <g id="ytick_29">
     <g id="line2d_37">
      <g>
       <use style="fill:#262626;stroke:#262626;" x="1162.31125" xlink:href="#m7b7c0b286d" y="339.235852"/>
      </g>
     </g>
    </g>
    <g id="ytick_30">
     <g id="line2d_38">
      <g>
       <use style="fill:#262626;stroke:#262626;" x="1162.31125" xlink:href="#m7b7c0b286d" y="334.036956"/>
      </g>
     </g>
    </g>
    <g id="ytick_31">
     <g id="line2d_39">
      <g>
       <use style="fill:#262626;stroke:#262626;" x="1162.31125" xlink:href="#m7b7c0b286d" y="329.533467"/>
      </g>
     </g>
    </g>
    <g id="ytick_32">
     <g id="line2d_40">
      <g>
       <use style="fill:#262626;stroke:#262626;" x="1162.31125" xlink:href="#m7b7c0b286d" y="325.561108"/>
      </g>
     </g>
    </g>
    <g id="ytick_33">
     <g id="line2d_41">
      <g>
       <use style="fill:#262626;stroke:#262626;" x="1162.31125" xlink:href="#m7b7c0b286d" y="298.630583"/>
      </g>
     </g>
    </g>
    <g id="ytick_34">
     <g id="line2d_42">
      <g>
       <use style="fill:#262626;stroke:#262626;" x="1162.31125" xlink:href="#m7b7c0b286d" y="284.955839"/>
      </g>
     </g>
    </g>
    <g id="ytick_35">
     <g id="line2d_43">
      <g>
       <use style="fill:#262626;stroke:#262626;" x="1162.31125" xlink:href="#m7b7c0b286d" y="275.253453"/>
      </g>
     </g>
    </g>
    <g id="ytick_36">
     <g id="line2d_44">
      <g>
       <use style="fill:#262626;stroke:#262626;" x="1162.31125" xlink:href="#m7b7c0b286d" y="267.727699"/>
      </g>
     </g>
    </g>
    <g id="ytick_37">
     <g id="line2d_45">
      <g>
       <use style="fill:#262626;stroke:#262626;" x="1162.31125" xlink:href="#m7b7c0b286d" y="261.578709"/>
      </g>
     </g>
    </g>
    <g id="ytick_38">
     <g id="line2d_46">
      <g>
       <use style="fill:#262626;stroke:#262626;" x="1162.31125" xlink:href="#m7b7c0b286d" y="256.379813"/>
      </g>
     </g>
    </g>
    <g id="ytick_39">
     <g id="line2d_47">
      <g>
       <use style="fill:#262626;stroke:#262626;" x="1162.31125" xlink:href="#m7b7c0b286d" y="251.876324"/>
      </g>
     </g>
    </g>
    <g id="ytick_40">
     <g id="line2d_48">
      <g>
       <use style="fill:#262626;stroke:#262626;" x="1162.31125" xlink:href="#m7b7c0b286d" y="247.903965"/>
      </g>
     </g>
    </g>
    <g id="ytick_41">
     <g id="line2d_49">
      <g>
       <use style="fill:#262626;stroke:#262626;" x="1162.31125" xlink:href="#m7b7c0b286d" y="220.97344"/>
      </g>
     </g>
    </g>
    <g id="ytick_42">
     <g id="line2d_50">
      <g>
       <use style="fill:#262626;stroke:#262626;" x="1162.31125" xlink:href="#m7b7c0b286d" y="207.298696"/>
      </g>
     </g>
    </g>
    <g id="ytick_43">
     <g id="line2d_51">
      <g>
       <use style="fill:#262626;stroke:#262626;" x="1162.31125" xlink:href="#m7b7c0b286d" y="197.59631"/>
      </g>
     </g>
    </g>
    <g id="ytick_44">
     <g id="line2d_52">
      <g>
       <use style="fill:#262626;stroke:#262626;" x="1162.31125" xlink:href="#m7b7c0b286d" y="190.070556"/>
      </g>
     </g>
    </g>
    <g id="ytick_45">
     <g id="line2d_53">
      <g>
       <use style="fill:#262626;stroke:#262626;" x="1162.31125" xlink:href="#m7b7c0b286d" y="183.921566"/>
      </g>
     </g>
    </g>
    <g id="ytick_46">
     <g id="line2d_54">
      <g>
       <use style="fill:#262626;stroke:#262626;" x="1162.31125" xlink:href="#m7b7c0b286d" y="178.72267"/>
      </g>
     </g>
    </g>
    <g id="ytick_47">
     <g id="line2d_55">
      <g>
       <use style="fill:#262626;stroke:#262626;" x="1162.31125" xlink:href="#m7b7c0b286d" y="174.219181"/>
      </g>
     </g>
    </g>
    <g id="ytick_48">
     <g id="line2d_56">
      <g>
       <use style="fill:#262626;stroke:#262626;" x="1162.31125" xlink:href="#m7b7c0b286d" y="170.246822"/>
      </g>
     </g>
    </g>
    <g id="ytick_49">
     <g id="line2d_57">
      <g>
       <use style="fill:#262626;stroke:#262626;" x="1162.31125" xlink:href="#m7b7c0b286d" y="143.316297"/>
      </g>
     </g>
    </g>
    <g id="ytick_50">
     <g id="line2d_58">
      <g>
       <use style="fill:#262626;stroke:#262626;" x="1162.31125" xlink:href="#m7b7c0b286d" y="129.641553"/>
      </g>
     </g>
    </g>
    <g id="ytick_51">
     <g id="line2d_59">
      <g>
       <use style="fill:#262626;stroke:#262626;" x="1162.31125" xlink:href="#m7b7c0b286d" y="119.939168"/>
      </g>
     </g>
    </g>
    <g id="ytick_52">
     <g id="line2d_60">
      <g>
       <use style="fill:#262626;stroke:#262626;" x="1162.31125" xlink:href="#m7b7c0b286d" y="112.413413"/>
      </g>
     </g>
    </g>
    <g id="ytick_53">
     <g id="line2d_61">
      <g>
       <use style="fill:#262626;stroke:#262626;" x="1162.31125" xlink:href="#m7b7c0b286d" y="106.264424"/>
      </g>
     </g>
    </g>
    <g id="ytick_54">
     <g id="line2d_62">
      <g>
       <use style="fill:#262626;stroke:#262626;" x="1162.31125" xlink:href="#m7b7c0b286d" y="101.065527"/>
      </g>
     </g>
    </g>
    <g id="ytick_55">
     <g id="line2d_63">
      <g>
       <use style="fill:#262626;stroke:#262626;" x="1162.31125" xlink:href="#m7b7c0b286d" y="96.562038"/>
      </g>
     </g>
    </g>
    <g id="ytick_56">
     <g id="line2d_64">
      <g>
       <use style="fill:#262626;stroke:#262626;" x="1162.31125" xlink:href="#m7b7c0b286d" y="92.589679"/>
      </g>
     </g>
    </g>
    <g id="ytick_57">
     <g id="line2d_65">
      <g>
       <use style="fill:#262626;stroke:#262626;" x="1162.31125" xlink:href="#m7b7c0b286d" y="65.659154"/>
      </g>
     </g>
    </g>
    <g id="ytick_58">
     <g id="line2d_66">
      <g>
       <use style="fill:#262626;stroke:#262626;" x="1162.31125" xlink:href="#m7b7c0b286d" y="51.98441"/>
      </g>
     </g>
    </g>
    <g id="ytick_59">
     <g id="line2d_67">
      <g>
       <use style="fill:#262626;stroke:#262626;" x="1162.31125" xlink:href="#m7b7c0b286d" y="42.282025"/>
      </g>
     </g>
    </g>
    <g id="ytick_60">
     <g id="line2d_68">
      <g>
       <use style="fill:#262626;stroke:#262626;" x="1162.31125" xlink:href="#m7b7c0b286d" y="34.75627"/>
      </g>
     </g>
    </g>
    <g id="ytick_61">
     <g id="line2d_69">
      <g>
       <use style="fill:#262626;stroke:#262626;" x="1162.31125" xlink:href="#m7b7c0b286d" y="28.607281"/>
      </g>
     </g>
    </g>
    <g id="ytick_62">
     <g id="line2d_70">
      <g>
       <use style="fill:#262626;stroke:#262626;" x="1162.31125" xlink:href="#m7b7c0b286d" y="23.408384"/>
      </g>
     </g>
    </g>
    <g id="ytick_63">
     <g id="line2d_71">
      <g>
       <use style="fill:#262626;stroke:#262626;" x="1162.31125" xlink:href="#m7b7c0b286d" y="18.904895"/>
      </g>
     </g>
    </g>
    <g id="ytick_64">
     <g id="line2d_72">
      <g>
       <use style="fill:#262626;stroke:#262626;" x="1162.31125" xlink:href="#m7b7c0b286d" y="14.932537"/>
      </g>
     </g>
    </g>
    <g id="text_9">
     <!-- log(10) Number of samples used -->
     <defs>
      <path d="M 9.421875 75.984375 
L 18.40625 75.984375 
L 18.40625 0 
L 9.421875 0 
z
" id="DejaVuSans-108"/>
      <path d="M 30.609375 48.390625 
Q 23.390625 48.390625 19.1875 42.75 
Q 14.984375 37.109375 14.984375 27.296875 
Q 14.984375 17.484375 19.15625 11.84375 
Q 23.34375 6.203125 30.609375 6.203125 
Q 37.796875 6.203125 41.984375 11.859375 
Q 46.1875 17.53125 46.1875 27.296875 
Q 46.1875 37.015625 41.984375 42.703125 
Q 37.796875 48.390625 30.609375 48.390625 
z
M 30.609375 56 
Q 42.328125 56 49.015625 48.375 
Q 55.71875 40.765625 55.71875 27.296875 
Q 55.71875 13.875 49.015625 6.21875 
Q 42.328125 -1.421875 30.609375 -1.421875 
Q 18.84375 -1.421875 12.171875 6.21875 
Q 5.515625 13.875 5.515625 27.296875 
Q 5.515625 40.765625 12.171875 48.375 
Q 18.84375 56 30.609375 56 
z
" id="DejaVuSans-111"/>
      <path d="M 45.40625 27.984375 
Q 45.40625 37.75 41.375 43.109375 
Q 37.359375 48.484375 30.078125 48.484375 
Q 22.859375 48.484375 18.828125 43.109375 
Q 14.796875 37.75 14.796875 27.984375 
Q 14.796875 18.265625 18.828125 12.890625 
Q 22.859375 7.515625 30.078125 7.515625 
Q 37.359375 7.515625 41.375 12.890625 
Q 45.40625 18.265625 45.40625 27.984375 
z
M 54.390625 6.78125 
Q 54.390625 -7.171875 48.1875 -13.984375 
Q 42 -20.796875 29.203125 -20.796875 
Q 24.46875 -20.796875 20.265625 -20.09375 
Q 16.0625 -19.390625 12.109375 -17.921875 
L 12.109375 -9.1875 
Q 16.0625 -11.328125 19.921875 -12.34375 
Q 23.78125 -13.375 27.78125 -13.375 
Q 36.625 -13.375 41.015625 -8.765625 
Q 45.40625 -4.15625 45.40625 5.171875 
L 45.40625 9.625 
Q 42.625 4.78125 38.28125 2.390625 
Q 33.9375 0 27.875 0 
Q 17.828125 0 11.671875 7.65625 
Q 5.515625 15.328125 5.515625 27.984375 
Q 5.515625 40.671875 11.671875 48.328125 
Q 17.828125 56 27.875 56 
Q 33.9375 56 38.28125 53.609375 
Q 42.625 51.21875 45.40625 46.390625 
L 45.40625 54.6875 
L 54.390625 54.6875 
z
" id="DejaVuSans-103"/>
      <path d="M 31 75.875 
Q 24.46875 64.65625 21.28125 53.65625 
Q 18.109375 42.671875 18.109375 31.390625 
Q 18.109375 20.125 21.3125 9.0625 
Q 24.515625 -2 31 -13.1875 
L 23.1875 -13.1875 
Q 15.875 -1.703125 12.234375 9.375 
Q 8.59375 20.453125 8.59375 31.390625 
Q 8.59375 42.28125 12.203125 53.3125 
Q 15.828125 64.359375 23.1875 75.875 
z
" id="DejaVuSans-40"/>
      <path d="M 8.015625 75.875 
L 15.828125 75.875 
Q 23.140625 64.359375 26.78125 53.3125 
Q 30.421875 42.28125 30.421875 31.390625 
Q 30.421875 20.453125 26.78125 9.375 
Q 23.140625 -1.703125 15.828125 -13.1875 
L 8.015625 -13.1875 
Q 14.5 -2 17.703125 9.0625 
Q 20.90625 20.125 20.90625 31.390625 
Q 20.90625 42.671875 17.703125 53.65625 
Q 14.5 64.65625 8.015625 75.875 
z
" id="DejaVuSans-41"/>
      <path id="DejaVuSans-32"/>
      <path d="M 9.8125 72.90625 
L 23.09375 72.90625 
L 55.421875 11.921875 
L 55.421875 72.90625 
L 64.984375 72.90625 
L 64.984375 0 
L 51.703125 0 
L 19.390625 60.984375 
L 19.390625 0 
L 9.8125 0 
z
" id="DejaVuSans-78"/>
      <path d="M 8.5 21.578125 
L 8.5 54.6875 
L 17.484375 54.6875 
L 17.484375 21.921875 
Q 17.484375 14.15625 20.5 10.265625 
Q 23.53125 6.390625 29.59375 6.390625 
Q 36.859375 6.390625 41.078125 11.03125 
Q 45.3125 15.671875 45.3125 23.6875 
L 45.3125 54.6875 
L 54.296875 54.6875 
L 54.296875 0 
L 45.3125 0 
L 45.3125 8.40625 
Q 42.046875 3.421875 37.71875 1 
Q 33.40625 -1.421875 27.6875 -1.421875 
Q 18.265625 -1.421875 13.375 4.4375 
Q 8.5 10.296875 8.5 21.578125 
z
M 31.109375 56 
z
" id="DejaVuSans-117"/>
      <path d="M 52 44.1875 
Q 55.375 50.25 60.0625 53.125 
Q 64.75 56 71.09375 56 
Q 79.640625 56 84.28125 50.015625 
Q 88.921875 44.046875 88.921875 33.015625 
L 88.921875 0 
L 79.890625 0 
L 79.890625 32.71875 
Q 79.890625 40.578125 77.09375 44.375 
Q 74.3125 48.1875 68.609375 48.1875 
Q 61.625 48.1875 57.5625 43.546875 
Q 53.515625 38.921875 53.515625 30.90625 
L 53.515625 0 
L 44.484375 0 
L 44.484375 32.71875 
Q 44.484375 40.625 41.703125 44.40625 
Q 38.921875 48.1875 33.109375 48.1875 
Q 26.21875 48.1875 22.15625 43.53125 
Q 18.109375 38.875 18.109375 30.90625 
L 18.109375 0 
L 9.078125 0 
L 9.078125 54.6875 
L 18.109375 54.6875 
L 18.109375 46.1875 
Q 21.1875 51.21875 25.484375 53.609375 
Q 29.78125 56 35.6875 56 
Q 41.65625 56 45.828125 52.96875 
Q 50 49.953125 52 44.1875 
z
" id="DejaVuSans-109"/>
      <path d="M 48.6875 27.296875 
Q 48.6875 37.203125 44.609375 42.84375 
Q 40.53125 48.484375 33.40625 48.484375 
Q 26.265625 48.484375 22.1875 42.84375 
Q 18.109375 37.203125 18.109375 27.296875 
Q 18.109375 17.390625 22.1875 11.75 
Q 26.265625 6.109375 33.40625 6.109375 
Q 40.53125 6.109375 44.609375 11.75 
Q 48.6875 17.390625 48.6875 27.296875 
z
M 18.109375 46.390625 
Q 20.953125 51.265625 25.265625 53.625 
Q 29.59375 56 35.59375 56 
Q 45.5625 56 51.78125 48.09375 
Q 58.015625 40.1875 58.015625 27.296875 
Q 58.015625 14.40625 51.78125 6.484375 
Q 45.5625 -1.421875 35.59375 -1.421875 
Q 29.59375 -1.421875 25.265625 0.953125 
Q 20.953125 3.328125 18.109375 8.203125 
L 18.109375 0 
L 9.078125 0 
L 9.078125 75.984375 
L 18.109375 75.984375 
z
" id="DejaVuSans-98"/>
      <path d="M 56.203125 29.59375 
L 56.203125 25.203125 
L 14.890625 25.203125 
Q 15.484375 15.921875 20.484375 11.0625 
Q 25.484375 6.203125 34.421875 6.203125 
Q 39.59375 6.203125 44.453125 7.46875 
Q 49.3125 8.734375 54.109375 11.28125 
L 54.109375 2.78125 
Q 49.265625 0.734375 44.1875 -0.34375 
Q 39.109375 -1.421875 33.890625 -1.421875 
Q 20.796875 -1.421875 13.15625 6.1875 
Q 5.515625 13.8125 5.515625 26.8125 
Q 5.515625 40.234375 12.765625 48.109375 
Q 20.015625 56 32.328125 56 
Q 43.359375 56 49.78125 48.890625 
Q 56.203125 41.796875 56.203125 29.59375 
z
M 47.21875 32.234375 
Q 47.125 39.59375 43.09375 43.984375 
Q 39.0625 48.390625 32.421875 48.390625 
Q 24.90625 48.390625 20.390625 44.140625 
Q 15.875 39.890625 15.1875 32.171875 
z
" id="DejaVuSans-101"/>
      <path d="M 41.109375 46.296875 
Q 39.59375 47.171875 37.8125 47.578125 
Q 36.03125 48 33.890625 48 
Q 26.265625 48 22.1875 43.046875 
Q 18.109375 38.09375 18.109375 28.8125 
L 18.109375 0 
L 9.078125 0 
L 9.078125 54.6875 
L 18.109375 54.6875 
L 18.109375 46.1875 
Q 20.953125 51.171875 25.484375 53.578125 
Q 30.03125 56 36.53125 56 
Q 37.453125 56 38.578125 55.875 
Q 39.703125 55.765625 41.0625 55.515625 
z
" id="DejaVuSans-114"/>
      <path d="M 37.109375 75.984375 
L 37.109375 68.5 
L 28.515625 68.5 
Q 23.6875 68.5 21.796875 66.546875 
Q 19.921875 64.59375 19.921875 59.515625 
L 19.921875 54.6875 
L 34.71875 54.6875 
L 34.71875 47.703125 
L 19.921875 47.703125 
L 19.921875 0 
L 10.890625 0 
L 10.890625 47.703125 
L 2.296875 47.703125 
L 2.296875 54.6875 
L 10.890625 54.6875 
L 10.890625 58.5 
Q 10.890625 67.625 15.140625 71.796875 
Q 19.390625 75.984375 28.609375 75.984375 
z
" id="DejaVuSans-102"/>
      <path d="M 44.28125 53.078125 
L 44.28125 44.578125 
Q 40.484375 46.53125 36.375 47.5 
Q 32.28125 48.484375 27.875 48.484375 
Q 21.1875 48.484375 17.84375 46.4375 
Q 14.5 44.390625 14.5 40.28125 
Q 14.5 37.15625 16.890625 35.375 
Q 19.28125 33.59375 26.515625 31.984375 
L 29.59375 31.296875 
Q 39.15625 29.25 43.1875 25.515625 
Q 47.21875 21.78125 47.21875 15.09375 
Q 47.21875 7.46875 41.1875 3.015625 
Q 35.15625 -1.421875 24.609375 -1.421875 
Q 20.21875 -1.421875 15.453125 -0.5625 
Q 10.6875 0.296875 5.421875 2 
L 5.421875 11.28125 
Q 10.40625 8.6875 15.234375 7.390625 
Q 20.0625 6.109375 24.8125 6.109375 
Q 31.15625 6.109375 34.5625 8.28125 
Q 37.984375 10.453125 37.984375 14.40625 
Q 37.984375 18.0625 35.515625 20.015625 
Q 33.0625 21.96875 24.703125 23.78125 
L 21.578125 24.515625 
Q 13.234375 26.265625 9.515625 29.90625 
Q 5.8125 33.546875 5.8125 39.890625 
Q 5.8125 47.609375 11.28125 51.796875 
Q 16.75 56 26.8125 56 
Q 31.78125 56 36.171875 55.265625 
Q 40.578125 54.546875 44.28125 53.078125 
z
" id="DejaVuSans-115"/>
      <path d="M 34.28125 27.484375 
Q 23.390625 27.484375 19.1875 25 
Q 14.984375 22.515625 14.984375 16.5 
Q 14.984375 11.71875 18.140625 8.90625 
Q 21.296875 6.109375 26.703125 6.109375 
Q 34.1875 6.109375 38.703125 11.40625 
Q 43.21875 16.703125 43.21875 25.484375 
L 43.21875 27.484375 
z
M 52.203125 31.203125 
L 52.203125 0 
L 43.21875 0 
L 43.21875 8.296875 
Q 40.140625 3.328125 35.546875 0.953125 
Q 30.953125 -1.421875 24.3125 -1.421875 
Q 15.921875 -1.421875 10.953125 3.296875 
Q 6 8.015625 6 15.921875 
Q 6 25.140625 12.171875 29.828125 
Q 18.359375 34.515625 30.609375 34.515625 
L 43.21875 34.515625 
L 43.21875 35.40625 
Q 43.21875 41.609375 39.140625 45 
Q 35.0625 48.390625 27.6875 48.390625 
Q 23 48.390625 18.546875 47.265625 
Q 14.109375 46.140625 10.015625 43.890625 
L 10.015625 52.203125 
Q 14.9375 54.109375 19.578125 55.046875 
Q 24.21875 56 28.609375 56 
Q 40.484375 56 46.34375 49.84375 
Q 52.203125 43.703125 52.203125 31.203125 
z
" id="DejaVuSans-97"/>
      <path d="M 18.109375 8.203125 
L 18.109375 -20.796875 
L 9.078125 -20.796875 
L 9.078125 54.6875 
L 18.109375 54.6875 
L 18.109375 46.390625 
Q 20.953125 51.265625 25.265625 53.625 
Q 29.59375 56 35.59375 56 
Q 45.5625 56 51.78125 48.09375 
Q 58.015625 40.1875 58.015625 27.296875 
Q 58.015625 14.40625 51.78125 6.484375 
Q 45.5625 -1.421875 35.59375 -1.421875 
Q 29.59375 -1.421875 25.265625 0.953125 
Q 20.953125 3.328125 18.109375 8.203125 
z
M 48.6875 27.296875 
Q 48.6875 37.203125 44.609375 42.84375 
Q 40.53125 48.484375 33.40625 48.484375 
Q 26.265625 48.484375 22.1875 42.84375 
Q 18.109375 37.203125 18.109375 27.296875 
Q 18.109375 17.390625 22.1875 11.75 
Q 26.265625 6.109375 33.40625 6.109375 
Q 40.53125 6.109375 44.609375 11.75 
Q 48.6875 17.390625 48.6875 27.296875 
z
" id="DejaVuSans-112"/>
      <path d="M 45.40625 46.390625 
L 45.40625 75.984375 
L 54.390625 75.984375 
L 54.390625 0 
L 45.40625 0 
L 45.40625 8.203125 
Q 42.578125 3.328125 38.25 0.953125 
Q 33.9375 -1.421875 27.875 -1.421875 
Q 17.96875 -1.421875 11.734375 6.484375 
Q 5.515625 14.40625 5.515625 27.296875 
Q 5.515625 40.1875 11.734375 48.09375 
Q 17.96875 56 27.875 56 
Q 33.9375 56 38.25 53.625 
Q 42.578125 51.265625 45.40625 46.390625 
z
M 14.796875 27.296875 
Q 14.796875 17.390625 18.875 11.75 
Q 22.953125 6.109375 30.078125 6.109375 
Q 37.203125 6.109375 41.296875 11.75 
Q 45.40625 17.390625 45.40625 27.296875 
Q 45.40625 37.203125 41.296875 42.84375 
Q 37.203125 48.484375 30.078125 48.484375 
Q 22.953125 48.484375 18.875 42.84375 
Q 14.796875 37.203125 14.796875 27.296875 
z
" id="DejaVuSans-100"/>
     </defs>
     <g style="fill:#262626;" transform="translate(1204.289375 381.526641)rotate(-90)scale(0.12 -0.12)">
      <use xlink:href="#DejaVuSans-108"/>
      <use x="27.783203" xlink:href="#DejaVuSans-111"/>
      <use x="88.964844" xlink:href="#DejaVuSans-103"/>
      <use x="152.441406" xlink:href="#DejaVuSans-40"/>
      <use x="191.455078" xlink:href="#DejaVuSans-49"/>
      <use x="255.078125" xlink:href="#DejaVuSans-48"/>
      <use x="318.701172" xlink:href="#DejaVuSans-41"/>
      <use x="357.714844" xlink:href="#DejaVuSans-32"/>
      <use x="389.501953" xlink:href="#DejaVuSans-78"/>
      <use x="464.306641" xlink:href="#DejaVuSans-117"/>
      <use x="527.685547" xlink:href="#DejaVuSans-109"/>
      <use x="625.097656" xlink:href="#DejaVuSans-98"/>
      <use x="688.574219" xlink:href="#DejaVuSans-101"/>
      <use x="750.097656" xlink:href="#DejaVuSans-114"/>
      <use x="791.210938" xlink:href="#DejaVuSans-32"/>
      <use x="822.998047" xlink:href="#DejaVuSans-111"/>
      <use x="884.179688" xlink:href="#DejaVuSans-102"/>
      <use x="919.384766" xlink:href="#DejaVuSans-32"/>
      <use x="951.171875" xlink:href="#DejaVuSans-115"/>
      <use x="1003.271484" xlink:href="#DejaVuSans-97"/>
      <use x="1064.550781" xlink:href="#DejaVuSans-109"/>
      <use x="1161.962891" xlink:href="#DejaVuSans-112"/>
      <use x="1225.439453" xlink:href="#DejaVuSans-108"/>
      <use x="1253.222656" xlink:href="#DejaVuSans-101"/>
      <use x="1314.746094" xlink:href="#DejaVuSans-115"/>
      <use x="1366.845703" xlink:href="#DejaVuSans-32"/>
      <use x="1398.632812" xlink:href="#DejaVuSans-117"/>
      <use x="1462.011719" xlink:href="#DejaVuSans-115"/>
      <use x="1514.111328" xlink:href="#DejaVuSans-101"/>
      <use x="1575.634766" xlink:href="#DejaVuSans-100"/>
     </g>
    </g>
   </g>
   <g id="patch_2">
    <path clip-path="url(#pfd0c7636b3)" d="M 97.038523 78212.121998 
L 128.096037 78212.121998 
L 128.096037 168.507946 
L 97.038523 168.507946 
z
" style="fill:#808080;stroke:#ffffff;stroke-linejoin:miter;"/>
   </g>
   <g id="patch_3">
    <path clip-path="url(#pfd0c7636b3)" d="M 148.801046 78212.121998 
L 179.85856 78212.121998 
L 179.85856 174.215387 
L 148.801046 174.215387 
z
" style="fill:#808080;stroke:#ffffff;stroke-linejoin:miter;"/>
   </g>
   <g id="patch_4">
    <path clip-path="url(#pfd0c7636b3)" d="M 200.563569 78212.121998 
L 231.621083 78212.121998 
L 231.621083 177.919511 
L 200.563569 177.919511 
z
" style="fill:#808080;stroke:#ffffff;stroke-linejoin:miter;"/>
   </g>
   <g id="patch_5">
    <path clip-path="url(#pfd0c7636b3)" d="M 252.326092 78212.121998 
L 283.383606 78212.121998 
L 283.383606 181.870059 
L 252.326092 181.870059 
z
" style="fill:#808080;stroke:#ffffff;stroke-linejoin:miter;"/>
   </g>
   <g id="patch_6">
    <path clip-path="url(#pfd0c7636b3)" d="M 304.088615 78212.121998 
L 335.146129 78212.121998 
L 335.146129 186.034702 
L 304.088615 186.034702 
z
" style="fill:#808080;stroke:#ffffff;stroke-linejoin:miter;"/>
   </g>
   <g id="patch_7">
    <path clip-path="url(#pfd0c7636b3)" d="M 355.851139 78212.121998 
L 386.908653 78212.121998 
L 386.908653 190.684529 
L 355.851139 190.684529 
z
" style="fill:#808080;stroke:#ffffff;stroke-linejoin:miter;"/>
   </g>
   <g id="patch_8">
    <path clip-path="url(#pfd0c7636b3)" d="M 407.613662 78212.121998 
L 438.671176 78212.121998 
L 438.671176 196.00948 
L 407.613662 196.00948 
z
" style="fill:#808080;stroke:#ffffff;stroke-linejoin:miter;"/>
   </g>
   <g id="patch_9">
    <path clip-path="url(#pfd0c7636b3)" d="M 459.376185 78212.121998 
L 490.433699 78212.121998 
L 490.433699 202.448492 
L 459.376185 202.448492 
z
" style="fill:#808080;stroke:#ffffff;stroke-linejoin:miter;"/>
   </g>
   <g id="patch_10">
    <path clip-path="url(#pfd0c7636b3)" d="M 511.138708 78212.121998 
L 542.196222 78212.121998 
L 542.196222 210.271287 
L 511.138708 210.271287 
z
" style="fill:#808080;stroke:#ffffff;stroke-linejoin:miter;"/>
   </g>
   <g id="patch_11">
    <path clip-path="url(#pfd0c7636b3)" d="M 562.901231 78212.121998 
L 593.958745 78212.121998 
L 593.958745 218.791013 
L 562.901231 218.791013 
z
" style="fill:#808080;stroke:#ffffff;stroke-linejoin:miter;"/>
   </g>
   <g id="patch_12">
    <path clip-path="url(#pfd0c7636b3)" d="M 614.663755 78212.121998 
L 645.721269 78212.121998 
L 645.721269 227.363418 
L 614.663755 227.363418 
z
" style="fill:#808080;stroke:#ffffff;stroke-linejoin:miter;"/>
   </g>
   <g id="patch_13">
    <path clip-path="url(#pfd0c7636b3)" d="M 666.426278 78212.121998 
L 697.483792 78212.121998 
L 697.483792 236.276193 
L 666.426278 236.276193 
z
" style="fill:#808080;stroke:#ffffff;stroke-linejoin:miter;"/>
   </g>
   <g id="patch_14">
    <path clip-path="url(#pfd0c7636b3)" d="M 718.188801 78212.121998 
L 749.246315 78212.121998 
L 749.246315 245.766001 
L 718.188801 245.766001 
z
" style="fill:#808080;stroke:#ffffff;stroke-linejoin:miter;"/>
   </g>
   <g id="patch_15">
    <path clip-path="url(#pfd0c7636b3)" d="M 769.951324 78212.121998 
L 801.008838 78212.121998 
L 801.008838 254.706792 
L 769.951324 254.706792 
z
" style="fill:#808080;stroke:#ffffff;stroke-linejoin:miter;"/>
   </g>
   <g id="patch_16">
    <path clip-path="url(#pfd0c7636b3)" d="M 821.713847 78212.121998 
L 852.771361 78212.121998 
L 852.771361 263.296799 
L 821.713847 263.296799 
z
" style="fill:#808080;stroke:#ffffff;stroke-linejoin:miter;"/>
   </g>
   <g id="patch_17">
    <path clip-path="url(#pfd0c7636b3)" d="M 873.476371 78212.121998 
L 904.533885 78212.121998 
L 904.533885 271.970101 
L 873.476371 271.970101 
z
" style="fill:#808080;stroke:#ffffff;stroke-linejoin:miter;"/>
   </g>
   <g id="patch_18">
    <path clip-path="url(#pfd0c7636b3)" d="M 925.238894 78212.121998 
L 956.296408 78212.121998 
L 956.296408 280.027836 
L 925.238894 280.027836 
z
" style="fill:#808080;stroke:#ffffff;stroke-linejoin:miter;"/>
   </g>
   <g id="patch_19">
    <path clip-path="url(#pfd0c7636b3)" d="M 977.001417 78212.121998 
L 1008.058931 78212.121998 
L 1008.058931 287.548734 
L 977.001417 287.548734 
z
" style="fill:#808080;stroke:#ffffff;stroke-linejoin:miter;"/>
   </g>
   <g id="patch_20">
    <path clip-path="url(#pfd0c7636b3)" d="M 1028.76394 78212.121998 
L 1059.821454 78212.121998 
L 1059.821454 295.385499 
L 1028.76394 295.385499 
z
" style="fill:#808080;stroke:#ffffff;stroke-linejoin:miter;"/>
   </g>
   <g id="patch_21">
    <path clip-path="url(#pfd0c7636b3)" d="M 1080.526463 78212.121998 
L 1111.583977 78212.121998 
L 1111.583977 302.808028 
L 1080.526463 302.808028 
z
" style="fill:#808080;stroke:#ffffff;stroke-linejoin:miter;"/>
   </g>
   <g id="patch_22">
    <path d="M 46.31125 554.979141 
L 46.31125 11.379141 
" style="fill:none;stroke:#ffffff;stroke-linecap:square;stroke-linejoin:miter;stroke-width:1.25;"/>
   </g>
   <g id="patch_23">
    <path d="M 1162.31125 554.979141 
L 1162.31125 11.379141 
" style="fill:none;stroke:#ffffff;stroke-linecap:square;stroke-linejoin:miter;stroke-width:1.25;"/>
   </g>
   <g id="patch_24">
    <path d="M 46.31125 554.979141 
L 1162.31125 554.979141 
" style="fill:none;stroke:#ffffff;stroke-linecap:square;stroke-linejoin:miter;stroke-width:1.25;"/>
   </g>
   <g id="patch_25">
    <path d="M 46.31125 11.379141 
L 1162.31125 11.379141 
" style="fill:none;stroke:#ffffff;stroke-linecap:square;stroke-linejoin:miter;stroke-width:1.25;"/>
   </g>
   <g id="legend_1">
    <g id="patch_26">
     <path d="M 1043.738125 549.479141 
L 1154.61125 549.479141 
Q 1156.81125 549.479141 1156.81125 547.279141 
L 1156.81125 532.233203 
Q 1156.81125 530.033203 1154.61125 530.033203 
L 1043.738125 530.033203 
Q 1041.538125 530.033203 1041.538125 532.233203 
L 1041.538125 547.279141 
Q 1041.538125 549.479141 1043.738125 549.479141 
z
" style="fill:#eaeaf2;opacity:0.8;stroke:#cccccc;stroke-linejoin:miter;"/>
    </g>
    <g id="patch_27">
     <path d="M 1045.938125 542.791484 
L 1067.938125 542.791484 
L 1067.938125 535.091484 
L 1045.938125 535.091484 
z
" style="fill:#808080;stroke:#ffffff;stroke-linejoin:miter;"/>
    </g>
    <g id="text_10">
     <!-- samples used -->
     <g style="fill:#262626;" transform="translate(1076.738125 542.791484)scale(0.11 -0.11)">
      <use xlink:href="#DejaVuSans-115"/>
      <use x="52.099609" xlink:href="#DejaVuSans-97"/>
      <use x="113.378906" xlink:href="#DejaVuSans-109"/>
      <use x="210.791016" xlink:href="#DejaVuSans-112"/>
      <use x="274.267578" xlink:href="#DejaVuSans-108"/>
      <use x="302.050781" xlink:href="#DejaVuSans-101"/>
      <use x="363.574219" xlink:href="#DejaVuSans-115"/>
      <use x="415.673828" xlink:href="#DejaVuSans-32"/>
      <use x="447.460938" xlink:href="#DejaVuSans-117"/>
      <use x="510.839844" xlink:href="#DejaVuSans-115"/>
      <use x="562.939453" xlink:href="#DejaVuSans-101"/>
      <use x="624.462891" xlink:href="#DejaVuSans-100"/>
     </g>
    </g>
   </g>
  </g>
  <g id="axes_2">
   <g id="patch_28">
    <path d="M 46.31125 554.979141 
L 1162.31125 554.979141 
L 1162.31125 11.379141 
L 46.31125 11.379141 
z
" style="fill:#eaeaf2;opacity:0.8;"/>
   </g>
   <g id="matplotlib.axis_2">
    <g id="xtick_1">
     <g id="line2d_73">
      <path clip-path="url(#pfd0c7636b3)" d="M 112.56728 554.979141 
L 112.56728 11.379141 
" style="fill:none;stroke:#ffffff;stroke-linecap:round;"/>
     </g>
     <g id="text_11">
      <!-- 0 -->
      <g style="fill:#262626;" transform="translate(109.067905 572.837422)scale(0.11 -0.11)">
       <use xlink:href="#DejaVuSans-48"/>
      </g>
     </g>
    </g>
    <g id="xtick_2">
     <g id="line2d_74">
      <path clip-path="url(#pfd0c7636b3)" d="M 319.617372 554.979141 
L 319.617372 11.379141 
" style="fill:none;stroke:#ffffff;stroke-linecap:round;"/>
     </g>
     <g id="text_12">
      <!-- 2 -->
      <g style="fill:#262626;" transform="translate(316.117997 572.837422)scale(0.11 -0.11)">
       <use xlink:href="#DejaVuSans-50"/>
      </g>
     </g>
    </g>
    <g id="xtick_3">
     <g id="line2d_75">
      <path clip-path="url(#pfd0c7636b3)" d="M 526.667465 554.979141 
L 526.667465 11.379141 
" style="fill:none;stroke:#ffffff;stroke-linecap:round;"/>
     </g>
     <g id="text_13">
      <!-- 4 -->
      <g style="fill:#262626;" transform="translate(523.16809 572.837422)scale(0.11 -0.11)">
       <use xlink:href="#DejaVuSans-52"/>
      </g>
     </g>
    </g>
    <g id="xtick_4">
     <g id="line2d_76">
      <path clip-path="url(#pfd0c7636b3)" d="M 733.717558 554.979141 
L 733.717558 11.379141 
" style="fill:none;stroke:#ffffff;stroke-linecap:round;"/>
     </g>
     <g id="text_14">
      <!-- 6 -->
      <g style="fill:#262626;" transform="translate(730.218183 572.837422)scale(0.11 -0.11)">
       <use xlink:href="#DejaVuSans-54"/>
      </g>
     </g>
    </g>
    <g id="xtick_5">
     <g id="line2d_77">
      <path clip-path="url(#pfd0c7636b3)" d="M 940.767651 554.979141 
L 940.767651 11.379141 
" style="fill:none;stroke:#ffffff;stroke-linecap:round;"/>
     </g>
     <g id="text_15">
      <!-- 8 -->
      <defs>
       <path d="M 31.78125 34.625 
Q 24.75 34.625 20.71875 30.859375 
Q 16.703125 27.09375 16.703125 20.515625 
Q 16.703125 13.921875 20.71875 10.15625 
Q 24.75 6.390625 31.78125 6.390625 
Q 38.8125 6.390625 42.859375 10.171875 
Q 46.921875 13.96875 46.921875 20.515625 
Q 46.921875 27.09375 42.890625 30.859375 
Q 38.875 34.625 31.78125 34.625 
z
M 21.921875 38.8125 
Q 15.578125 40.375 12.03125 44.71875 
Q 8.5 49.078125 8.5 55.328125 
Q 8.5 64.0625 14.71875 69.140625 
Q 20.953125 74.21875 31.78125 74.21875 
Q 42.671875 74.21875 48.875 69.140625 
Q 55.078125 64.0625 55.078125 55.328125 
Q 55.078125 49.078125 51.53125 44.71875 
Q 48 40.375 41.703125 38.8125 
Q 48.828125 37.15625 52.796875 32.3125 
Q 56.78125 27.484375 56.78125 20.515625 
Q 56.78125 9.90625 50.3125 4.234375 
Q 43.84375 -1.421875 31.78125 -1.421875 
Q 19.734375 -1.421875 13.25 4.234375 
Q 6.78125 9.90625 6.78125 20.515625 
Q 6.78125 27.484375 10.78125 32.3125 
Q 14.796875 37.15625 21.921875 38.8125 
z
M 18.3125 54.390625 
Q 18.3125 48.734375 21.84375 45.5625 
Q 25.390625 42.390625 31.78125 42.390625 
Q 38.140625 42.390625 41.71875 45.5625 
Q 45.3125 48.734375 45.3125 54.390625 
Q 45.3125 60.0625 41.71875 63.234375 
Q 38.140625 66.40625 31.78125 66.40625 
Q 25.390625 66.40625 21.84375 63.234375 
Q 18.3125 60.0625 18.3125 54.390625 
z
" id="DejaVuSans-56"/>
      </defs>
      <g style="fill:#262626;" transform="translate(937.268276 572.837422)scale(0.11 -0.11)">
       <use xlink:href="#DejaVuSans-56"/>
      </g>
     </g>
    </g>
    <g id="xtick_6">
     <g id="line2d_78">
      <path clip-path="url(#pfd0c7636b3)" d="M 1147.817744 554.979141 
L 1147.817744 11.379141 
" style="fill:none;stroke:#ffffff;stroke-linecap:round;"/>
     </g>
     <g id="text_16">
      <!-- 10 -->
      <g style="fill:#262626;" transform="translate(1140.818994 572.837422)scale(0.11 -0.11)">
       <use xlink:href="#DejaVuSans-49"/>
       <use x="63.623047" xlink:href="#DejaVuSans-48"/>
      </g>
     </g>
    </g>
    <g id="text_17">
     <!-- years_past -->
     <defs>
      <path d="M 32.171875 -5.078125 
Q 28.375 -14.84375 24.75 -17.8125 
Q 21.140625 -20.796875 15.09375 -20.796875 
L 7.90625 -20.796875 
L 7.90625 -13.28125 
L 13.1875 -13.28125 
Q 16.890625 -13.28125 18.9375 -11.515625 
Q 21 -9.765625 23.484375 -3.21875 
L 25.09375 0.875 
L 2.984375 54.6875 
L 12.5 54.6875 
L 29.59375 11.921875 
L 46.6875 54.6875 
L 56.203125 54.6875 
z
" id="DejaVuSans-121"/>
      <path d="M 50.984375 -16.609375 
L 50.984375 -23.578125 
L -0.984375 -23.578125 
L -0.984375 -16.609375 
z
" id="DejaVuSans-95"/>
      <path d="M 18.3125 70.21875 
L 18.3125 54.6875 
L 36.8125 54.6875 
L 36.8125 47.703125 
L 18.3125 47.703125 
L 18.3125 18.015625 
Q 18.3125 11.328125 20.140625 9.421875 
Q 21.96875 7.515625 27.59375 7.515625 
L 36.8125 7.515625 
L 36.8125 0 
L 27.59375 0 
Q 17.1875 0 13.234375 3.875 
Q 9.28125 7.765625 9.28125 18.015625 
L 9.28125 47.703125 
L 2.6875 47.703125 
L 2.6875 54.6875 
L 9.28125 54.6875 
L 9.28125 70.21875 
z
" id="DejaVuSans-116"/>
     </defs>
     <g style="fill:#262626;" transform="translate(571.835312 587.909453)scale(0.12 -0.12)">
      <use xlink:href="#DejaVuSans-121"/>
      <use x="59.179688" xlink:href="#DejaVuSans-101"/>
      <use x="120.703125" xlink:href="#DejaVuSans-97"/>
      <use x="181.982422" xlink:href="#DejaVuSans-114"/>
      <use x="223.095703" xlink:href="#DejaVuSans-115"/>
      <use x="275.195312" xlink:href="#DejaVuSans-95"/>
      <use x="325.195312" xlink:href="#DejaVuSans-112"/>
      <use x="388.671875" xlink:href="#DejaVuSans-97"/>
      <use x="449.951172" xlink:href="#DejaVuSans-115"/>
      <use x="502.050781" xlink:href="#DejaVuSans-116"/>
     </g>
    </g>
   </g>
   <g id="matplotlib.axis_3">
    <g id="ytick_65">
     <g id="line2d_79">
      <path clip-path="url(#pfd0c7636b3)" d="M 46.31125 554.979141 
L 1162.31125 554.979141 
" style="fill:none;stroke:#ffffff;stroke-linecap:round;"/>
     </g>
     <g id="line2d_80">
      <defs>
       <path d="M 0 0 
L -6 0 
" id="md448fb9f99" style="stroke:#262626;stroke-width:1.25;"/>
      </defs>
      <g>
       <use style="fill:#262626;stroke:#262626;stroke-width:1.25;" x="46.31125" xlink:href="#md448fb9f99" y="554.979141"/>
      </g>
     </g>
     <g id="text_18">
      <!-- 0 -->
      <g style="fill:#262626;" transform="translate(29.8125 559.158281)scale(0.11 -0.11)">
       <use xlink:href="#DejaVuSans-48"/>
      </g>
     </g>
    </g>
    <g id="ytick_66">
     <g id="line2d_81">
      <path clip-path="url(#pfd0c7636b3)" d="M 46.31125 446.259141 
L 1162.31125 446.259141 
" style="fill:none;stroke:#ffffff;stroke-linecap:round;"/>
     </g>
     <g id="line2d_82">
      <g>
       <use style="fill:#262626;stroke:#262626;stroke-width:1.25;" x="46.31125" xlink:href="#md448fb9f99" y="446.259141"/>
      </g>
     </g>
     <g id="text_19">
      <!-- 2 -->
      <g style="fill:#262626;" transform="translate(29.8125 450.438281)scale(0.11 -0.11)">
       <use xlink:href="#DejaVuSans-50"/>
      </g>
     </g>
    </g>
    <g id="ytick_67">
     <g id="line2d_83">
      <path clip-path="url(#pfd0c7636b3)" d="M 46.31125 337.539141 
L 1162.31125 337.539141 
" style="fill:none;stroke:#ffffff;stroke-linecap:round;"/>
     </g>
     <g id="line2d_84">
      <g>
       <use style="fill:#262626;stroke:#262626;stroke-width:1.25;" x="46.31125" xlink:href="#md448fb9f99" y="337.539141"/>
      </g>
     </g>
     <g id="text_20">
      <!-- 4 -->
      <g style="fill:#262626;" transform="translate(29.8125 341.718281)scale(0.11 -0.11)">
       <use xlink:href="#DejaVuSans-52"/>
      </g>
     </g>
    </g>
    <g id="ytick_68">
     <g id="line2d_85">
      <path clip-path="url(#pfd0c7636b3)" d="M 46.31125 228.819141 
L 1162.31125 228.819141 
" style="fill:none;stroke:#ffffff;stroke-linecap:round;"/>
     </g>
     <g id="line2d_86">
      <g>
       <use style="fill:#262626;stroke:#262626;stroke-width:1.25;" x="46.31125" xlink:href="#md448fb9f99" y="228.819141"/>
      </g>
     </g>
     <g id="text_21">
      <!-- 6 -->
      <g style="fill:#262626;" transform="translate(29.8125 232.998281)scale(0.11 -0.11)">
       <use xlink:href="#DejaVuSans-54"/>
      </g>
     </g>
    </g>
    <g id="ytick_69">
     <g id="line2d_87">
      <path clip-path="url(#pfd0c7636b3)" d="M 46.31125 120.099141 
L 1162.31125 120.099141 
" style="fill:none;stroke:#ffffff;stroke-linecap:round;"/>
     </g>
     <g id="line2d_88">
      <g>
       <use style="fill:#262626;stroke:#262626;stroke-width:1.25;" x="46.31125" xlink:href="#md448fb9f99" y="120.099141"/>
      </g>
     </g>
     <g id="text_22">
      <!-- 8 -->
      <g style="fill:#262626;" transform="translate(29.8125 124.278281)scale(0.11 -0.11)">
       <use xlink:href="#DejaVuSans-56"/>
      </g>
     </g>
    </g>
    <g id="ytick_70">
     <g id="line2d_89">
      <path clip-path="url(#pfd0c7636b3)" d="M 46.31125 11.379141 
L 1162.31125 11.379141 
" style="fill:none;stroke:#ffffff;stroke-linecap:round;"/>
     </g>
     <g id="line2d_90">
      <g>
       <use style="fill:#262626;stroke:#262626;stroke-width:1.25;" x="46.31125" xlink:href="#md448fb9f99" y="11.379141"/>
      </g>
     </g>
     <g id="text_23">
      <!-- 10 -->
      <g style="fill:#262626;" transform="translate(22.81375 15.558281)scale(0.11 -0.11)">
       <use xlink:href="#DejaVuSans-49"/>
       <use x="63.623047" xlink:href="#DejaVuSans-48"/>
      </g>
     </g>
    </g>
    <g id="text_24">
     <!-- Estimated remaining life expectancy (years) -->
     <defs>
      <path d="M 9.8125 72.90625 
L 55.90625 72.90625 
L 55.90625 64.59375 
L 19.671875 64.59375 
L 19.671875 43.015625 
L 54.390625 43.015625 
L 54.390625 34.71875 
L 19.671875 34.71875 
L 19.671875 8.296875 
L 56.78125 8.296875 
L 56.78125 0 
L 9.8125 0 
z
" id="DejaVuSans-69"/>
      <path d="M 9.421875 54.6875 
L 18.40625 54.6875 
L 18.40625 0 
L 9.421875 0 
z
M 9.421875 75.984375 
L 18.40625 75.984375 
L 18.40625 64.59375 
L 9.421875 64.59375 
z
" id="DejaVuSans-105"/>
      <path d="M 54.890625 33.015625 
L 54.890625 0 
L 45.90625 0 
L 45.90625 32.71875 
Q 45.90625 40.484375 42.875 44.328125 
Q 39.84375 48.1875 33.796875 48.1875 
Q 26.515625 48.1875 22.3125 43.546875 
Q 18.109375 38.921875 18.109375 30.90625 
L 18.109375 0 
L 9.078125 0 
L 9.078125 54.6875 
L 18.109375 54.6875 
L 18.109375 46.1875 
Q 21.34375 51.125 25.703125 53.5625 
Q 30.078125 56 35.796875 56 
Q 45.21875 56 50.046875 50.171875 
Q 54.890625 44.34375 54.890625 33.015625 
z
" id="DejaVuSans-110"/>
      <path d="M 54.890625 54.6875 
L 35.109375 28.078125 
L 55.90625 0 
L 45.3125 0 
L 29.390625 21.484375 
L 13.484375 0 
L 2.875 0 
L 24.125 28.609375 
L 4.6875 54.6875 
L 15.28125 54.6875 
L 29.78125 35.203125 
L 44.28125 54.6875 
z
" id="DejaVuSans-120"/>
      <path d="M 48.78125 52.59375 
L 48.78125 44.1875 
Q 44.96875 46.296875 41.140625 47.34375 
Q 37.3125 48.390625 33.40625 48.390625 
Q 24.65625 48.390625 19.8125 42.84375 
Q 14.984375 37.3125 14.984375 27.296875 
Q 14.984375 17.28125 19.8125 11.734375 
Q 24.65625 6.203125 33.40625 6.203125 
Q 37.3125 6.203125 41.140625 7.25 
Q 44.96875 8.296875 48.78125 10.40625 
L 48.78125 2.09375 
Q 45.015625 0.34375 40.984375 -0.53125 
Q 36.96875 -1.421875 32.421875 -1.421875 
Q 20.0625 -1.421875 12.78125 6.34375 
Q 5.515625 14.109375 5.515625 27.296875 
Q 5.515625 40.671875 12.859375 48.328125 
Q 20.21875 56 33.015625 56 
Q 37.15625 56 41.109375 55.140625 
Q 45.0625 54.296875 48.78125 52.59375 
z
" id="DejaVuSans-99"/>
     </defs>
     <g style="fill:#262626;" transform="translate(16.318125 416.361328)rotate(-90)scale(0.12 -0.12)">
      <use xlink:href="#DejaVuSans-69"/>
      <use x="63.183594" xlink:href="#DejaVuSans-115"/>
      <use x="115.283203" xlink:href="#DejaVuSans-116"/>
      <use x="154.492188" xlink:href="#DejaVuSans-105"/>
      <use x="182.275391" xlink:href="#DejaVuSans-109"/>
      <use x="279.6875" xlink:href="#DejaVuSans-97"/>
      <use x="340.966797" xlink:href="#DejaVuSans-116"/>
      <use x="380.175781" xlink:href="#DejaVuSans-101"/>
      <use x="441.699219" xlink:href="#DejaVuSans-100"/>
      <use x="505.175781" xlink:href="#DejaVuSans-32"/>
      <use x="536.962891" xlink:href="#DejaVuSans-114"/>
      <use x="575.826172" xlink:href="#DejaVuSans-101"/>
      <use x="637.349609" xlink:href="#DejaVuSans-109"/>
      <use x="734.761719" xlink:href="#DejaVuSans-97"/>
      <use x="796.041016" xlink:href="#DejaVuSans-105"/>
      <use x="823.824219" xlink:href="#DejaVuSans-110"/>
      <use x="887.203125" xlink:href="#DejaVuSans-105"/>
      <use x="914.986328" xlink:href="#DejaVuSans-110"/>
      <use x="978.365234" xlink:href="#DejaVuSans-103"/>
      <use x="1041.841797" xlink:href="#DejaVuSans-32"/>
      <use x="1073.628906" xlink:href="#DejaVuSans-108"/>
      <use x="1101.412109" xlink:href="#DejaVuSans-105"/>
      <use x="1129.195312" xlink:href="#DejaVuSans-102"/>
      <use x="1164.400391" xlink:href="#DejaVuSans-101"/>
      <use x="1225.923828" xlink:href="#DejaVuSans-32"/>
      <use x="1257.710938" xlink:href="#DejaVuSans-101"/>
      <use x="1317.484375" xlink:href="#DejaVuSans-120"/>
      <use x="1376.664062" xlink:href="#DejaVuSans-112"/>
      <use x="1440.140625" xlink:href="#DejaVuSans-101"/>
      <use x="1501.664062" xlink:href="#DejaVuSans-99"/>
      <use x="1556.644531" xlink:href="#DejaVuSans-116"/>
      <use x="1595.853516" xlink:href="#DejaVuSans-97"/>
      <use x="1657.132812" xlink:href="#DejaVuSans-110"/>
      <use x="1720.511719" xlink:href="#DejaVuSans-99"/>
      <use x="1775.492188" xlink:href="#DejaVuSans-121"/>
      <use x="1834.671875" xlink:href="#DejaVuSans-32"/>
      <use x="1866.458984" xlink:href="#DejaVuSans-40"/>
      <use x="1905.472656" xlink:href="#DejaVuSans-121"/>
      <use x="1964.652344" xlink:href="#DejaVuSans-101"/>
      <use x="2026.175781" xlink:href="#DejaVuSans-97"/>
      <use x="2087.455078" xlink:href="#DejaVuSans-114"/>
      <use x="2128.568359" xlink:href="#DejaVuSans-115"/>
      <use x="2180.667969" xlink:href="#DejaVuSans-41"/>
     </g>
    </g>
   </g>
   <g id="line2d_91">
    <path clip-path="url(#pfd0c7636b3)" d="M 112.56728 392.93785 
L 164.329803 391.978989 
L 216.092326 401.807513 
L 267.854849 411.615311 
L 319.617372 421.739287 
L 371.379896 431.204696 
L 423.142419 439.564738 
L 474.904942 445.316268 
L 526.667465 447.468662 
L 578.429988 447.490262 
L 630.192512 447.289651 
L 681.955035 445.809751 
L 733.717558 441.651524 
L 785.480081 438.361027 
L 837.242604 435.490648 
L 889.005128 431.474443 
L 940.767651 428.875873 
L 992.530174 427.814306 
L 1044.292697 425.137339 
L 1096.05522 423.41356 
" style="fill:none;stroke:#4c72b0;stroke-linecap:round;stroke-width:1.5;"/>
   </g>
   <g id="line2d_92">
    <path clip-path="url(#pfd0c7636b3)" d="M 112.56728 482.499141 
L 164.329803 472.174089 
L 216.092326 477.624972 
L 267.854849 483.373514 
L 319.617372 491.50333 
L 371.379896 499.633145 
L 423.142419 507.61413 
L 474.904942 514.25565 
L 526.667465 517.17643 
L 578.429988 517.269449 
L 630.192512 519.148422 
L 681.955035 520.134418 
L 733.717558 518.143822 
L 785.480081 516.897375 
L 837.242604 516.395075 
L 889.005128 513.362672 
L 940.767651 512.265054 
L 992.530174 513.39988 
L 1044.292697 510.471658 
L 1096.05522 510.609325 
" style="fill:none;stroke:#dd8452;stroke-linecap:round;stroke-width:1.5;"/>
   </g>
   <g id="line2d_93">
    <path clip-path="url(#pfd0c7636b3)" d="M 112.56728 412.400414 
L 164.329803 412.046943 
L 216.092326 423.599839 
L 267.854849 435.599223 
L 319.617372 448.789243 
L 371.379896 461.383946 
L 423.142419 471.597375 
L 474.904942 478.090065 
L 526.667465 481.754993 
L 578.429988 484.080455 
L 630.192512 485.512939 
L 681.955035 485.01064 
L 733.717558 482.127067 
L 785.480081 480.136471 
L 837.242604 476.80641 
L 889.005128 473.476348 
L 940.767651 470.890434 
L 992.530174 470.983453 
L 1044.292697 468.174295 
L 1096.05522 469.681194 
" style="fill:none;stroke:#55a868;stroke-linecap:round;stroke-width:1.5;"/>
   </g>
   <g id="line2d_94">
    <path clip-path="url(#pfd0c7636b3)" d="M 112.56728 227.702919 
L 164.329803 237.469859 
L 216.092326 253.27928 
L 267.854849 267.898065 
L 319.617372 281.951297 
L 371.379896 294.694829 
L 423.142419 304.610599 
L 474.904942 310.046599 
L 526.667465 308.666204 
L 578.429988 307.122098 
L 630.192512 301.812603 
L 681.955035 296.651937 
L 733.717558 291.000134 
L 785.480081 285.169736 
L 837.242604 280.96158 
L 889.005128 269.401243 
L 940.767651 250.399428 
L 992.530174 240.99712 
L 1044.292697 231.773408 
L 1096.05522 232.38733 
" style="fill:none;stroke:#c44e52;stroke-linecap:round;stroke-width:1.5;"/>
   </g>
   <g id="patch_29">
    <path d="M 46.31125 554.979141 
L 46.31125 11.379141 
" style="fill:none;stroke:#ffffff;stroke-linecap:square;stroke-linejoin:miter;stroke-width:1.25;"/>
   </g>
   <g id="patch_30">
    <path d="M 1162.31125 554.979141 
L 1162.31125 11.379141 
" style="fill:none;stroke:#ffffff;stroke-linecap:square;stroke-linejoin:miter;stroke-width:1.25;"/>
   </g>
   <g id="patch_31">
    <path d="M 46.31125 554.979141 
L 1162.31125 554.979141 
" style="fill:none;stroke:#ffffff;stroke-linecap:square;stroke-linejoin:miter;stroke-width:1.25;"/>
   </g>
   <g id="patch_32">
    <path d="M 46.31125 11.379141 
L 1162.31125 11.379141 
" style="fill:none;stroke:#ffffff;stroke-linecap:square;stroke-linejoin:miter;stroke-width:1.25;"/>
   </g>
   <g id="legend_2">
    <g id="patch_33">
     <path d="M 992.417969 84.762891 
L 1154.61125 84.762891 
Q 1156.81125 84.762891 1156.81125 82.562891 
L 1156.81125 19.079141 
Q 1156.81125 16.879141 1154.61125 16.879141 
L 992.417969 16.879141 
Q 990.217969 16.879141 990.217969 19.079141 
L 990.217969 82.562891 
Q 990.217969 84.762891 992.417969 84.762891 
z
" style="fill:#eaeaf2;opacity:0.8;stroke:#cccccc;stroke-linejoin:miter;"/>
    </g>
    <g id="line2d_95">
     <path d="M 994.617969 25.787422 
L 1016.617969 25.787422 
" style="fill:none;stroke:#4c72b0;stroke-linecap:round;stroke-width:1.5;"/>
    </g>
    <g id="line2d_96"/>
    <g id="text_25">
     <!-- life expectancy (mean) -->
     <g style="fill:#262626;" transform="translate(1025.417969 29.637422)scale(0.11 -0.11)">
      <use xlink:href="#DejaVuSans-108"/>
      <use x="27.783203" xlink:href="#DejaVuSans-105"/>
      <use x="55.566406" xlink:href="#DejaVuSans-102"/>
      <use x="90.771484" xlink:href="#DejaVuSans-101"/>
      <use x="152.294922" xlink:href="#DejaVuSans-32"/>
      <use x="184.082031" xlink:href="#DejaVuSans-101"/>
      <use x="243.855469" xlink:href="#DejaVuSans-120"/>
      <use x="303.035156" xlink:href="#DejaVuSans-112"/>
      <use x="366.511719" xlink:href="#DejaVuSans-101"/>
      <use x="428.035156" xlink:href="#DejaVuSans-99"/>
      <use x="483.015625" xlink:href="#DejaVuSans-116"/>
      <use x="522.224609" xlink:href="#DejaVuSans-97"/>
      <use x="583.503906" xlink:href="#DejaVuSans-110"/>
      <use x="646.882812" xlink:href="#DejaVuSans-99"/>
      <use x="701.863281" xlink:href="#DejaVuSans-121"/>
      <use x="761.042969" xlink:href="#DejaVuSans-32"/>
      <use x="792.830078" xlink:href="#DejaVuSans-40"/>
      <use x="831.84375" xlink:href="#DejaVuSans-109"/>
      <use x="929.255859" xlink:href="#DejaVuSans-101"/>
      <use x="990.779297" xlink:href="#DejaVuSans-97"/>
      <use x="1052.058594" xlink:href="#DejaVuSans-110"/>
      <use x="1115.4375" xlink:href="#DejaVuSans-41"/>
     </g>
    </g>
    <g id="line2d_97">
     <path d="M 994.617969 41.933359 
L 1016.617969 41.933359 
" style="fill:none;stroke:#dd8452;stroke-linecap:round;stroke-width:1.5;"/>
    </g>
    <g id="line2d_98"/>
    <g id="text_26">
     <!-- 30th-percentile -->
     <defs>
      <path d="M 54.890625 33.015625 
L 54.890625 0 
L 45.90625 0 
L 45.90625 32.71875 
Q 45.90625 40.484375 42.875 44.328125 
Q 39.84375 48.1875 33.796875 48.1875 
Q 26.515625 48.1875 22.3125 43.546875 
Q 18.109375 38.921875 18.109375 30.90625 
L 18.109375 0 
L 9.078125 0 
L 9.078125 75.984375 
L 18.109375 75.984375 
L 18.109375 46.1875 
Q 21.34375 51.125 25.703125 53.5625 
Q 30.078125 56 35.796875 56 
Q 45.21875 56 50.046875 50.171875 
Q 54.890625 44.34375 54.890625 33.015625 
z
" id="DejaVuSans-104"/>
      <path d="M 4.890625 31.390625 
L 31.203125 31.390625 
L 31.203125 23.390625 
L 4.890625 23.390625 
z
" id="DejaVuSans-45"/>
     </defs>
     <g style="fill:#262626;" transform="translate(1025.417969 45.783359)scale(0.11 -0.11)">
      <use xlink:href="#DejaVuSans-51"/>
      <use x="63.623047" xlink:href="#DejaVuSans-48"/>
      <use x="127.246094" xlink:href="#DejaVuSans-116"/>
      <use x="166.455078" xlink:href="#DejaVuSans-104"/>
      <use x="229.833984" xlink:href="#DejaVuSans-45"/>
      <use x="265.917969" xlink:href="#DejaVuSans-112"/>
      <use x="329.394531" xlink:href="#DejaVuSans-101"/>
      <use x="390.917969" xlink:href="#DejaVuSans-114"/>
      <use x="429.78125" xlink:href="#DejaVuSans-99"/>
      <use x="484.761719" xlink:href="#DejaVuSans-101"/>
      <use x="546.285156" xlink:href="#DejaVuSans-110"/>
      <use x="609.664062" xlink:href="#DejaVuSans-116"/>
      <use x="648.873047" xlink:href="#DejaVuSans-105"/>
      <use x="676.65625" xlink:href="#DejaVuSans-108"/>
      <use x="704.439453" xlink:href="#DejaVuSans-101"/>
     </g>
    </g>
    <g id="line2d_99">
     <path d="M 994.617969 58.079297 
L 1016.617969 58.079297 
" style="fill:none;stroke:#55a868;stroke-linecap:round;stroke-width:1.5;"/>
    </g>
    <g id="line2d_100"/>
    <g id="text_27">
     <!-- 50th-percentile -->
     <g style="fill:#262626;" transform="translate(1025.417969 61.929297)scale(0.11 -0.11)">
      <use xlink:href="#DejaVuSans-53"/>
      <use x="63.623047" xlink:href="#DejaVuSans-48"/>
      <use x="127.246094" xlink:href="#DejaVuSans-116"/>
      <use x="166.455078" xlink:href="#DejaVuSans-104"/>
      <use x="229.833984" xlink:href="#DejaVuSans-45"/>
      <use x="265.917969" xlink:href="#DejaVuSans-112"/>
      <use x="329.394531" xlink:href="#DejaVuSans-101"/>
      <use x="390.917969" xlink:href="#DejaVuSans-114"/>
      <use x="429.78125" xlink:href="#DejaVuSans-99"/>
      <use x="484.761719" xlink:href="#DejaVuSans-101"/>
      <use x="546.285156" xlink:href="#DejaVuSans-110"/>
      <use x="609.664062" xlink:href="#DejaVuSans-116"/>
      <use x="648.873047" xlink:href="#DejaVuSans-105"/>
      <use x="676.65625" xlink:href="#DejaVuSans-108"/>
      <use x="704.439453" xlink:href="#DejaVuSans-101"/>
     </g>
    </g>
    <g id="line2d_101">
     <path d="M 994.617969 74.225234 
L 1016.617969 74.225234 
" style="fill:none;stroke:#c44e52;stroke-linecap:round;stroke-width:1.5;"/>
    </g>
    <g id="line2d_102"/>
    <g id="text_28">
     <!-- 90th-percentile -->
     <defs>
      <path d="M 10.984375 1.515625 
L 10.984375 10.5 
Q 14.703125 8.734375 18.5 7.8125 
Q 22.3125 6.890625 25.984375 6.890625 
Q 35.75 6.890625 40.890625 13.453125 
Q 46.046875 20.015625 46.78125 33.40625 
Q 43.953125 29.203125 39.59375 26.953125 
Q 35.25 24.703125 29.984375 24.703125 
Q 19.046875 24.703125 12.671875 31.3125 
Q 6.296875 37.9375 6.296875 49.421875 
Q 6.296875 60.640625 12.9375 67.421875 
Q 19.578125 74.21875 30.609375 74.21875 
Q 43.265625 74.21875 49.921875 64.515625 
Q 56.59375 54.828125 56.59375 36.375 
Q 56.59375 19.140625 48.40625 8.859375 
Q 40.234375 -1.421875 26.421875 -1.421875 
Q 22.703125 -1.421875 18.890625 -0.6875 
Q 15.09375 0.046875 10.984375 1.515625 
z
M 30.609375 32.421875 
Q 37.25 32.421875 41.125 36.953125 
Q 45.015625 41.5 45.015625 49.421875 
Q 45.015625 57.28125 41.125 61.84375 
Q 37.25 66.40625 30.609375 66.40625 
Q 23.96875 66.40625 20.09375 61.84375 
Q 16.21875 57.28125 16.21875 49.421875 
Q 16.21875 41.5 20.09375 36.953125 
Q 23.96875 32.421875 30.609375 32.421875 
z
" id="DejaVuSans-57"/>
     </defs>
     <g style="fill:#262626;" transform="translate(1025.417969 78.075234)scale(0.11 -0.11)">
      <use xlink:href="#DejaVuSans-57"/>
      <use x="63.623047" xlink:href="#DejaVuSans-48"/>
      <use x="127.246094" xlink:href="#DejaVuSans-116"/>
      <use x="166.455078" xlink:href="#DejaVuSans-104"/>
      <use x="229.833984" xlink:href="#DejaVuSans-45"/>
      <use x="265.917969" xlink:href="#DejaVuSans-112"/>
      <use x="329.394531" xlink:href="#DejaVuSans-101"/>
      <use x="390.917969" xlink:href="#DejaVuSans-114"/>
      <use x="429.78125" xlink:href="#DejaVuSans-99"/>
      <use x="484.761719" xlink:href="#DejaVuSans-101"/>
      <use x="546.285156" xlink:href="#DejaVuSans-110"/>
      <use x="609.664062" xlink:href="#DejaVuSans-116"/>
      <use x="648.873047" xlink:href="#DejaVuSans-105"/>
      <use x="676.65625" xlink:href="#DejaVuSans-108"/>
      <use x="704.439453" xlink:href="#DejaVuSans-101"/>
     </g>
    </g>
   </g>
  </g>
 </g>
 <defs>
  <clipPath id="pfd0c7636b3">
   <rect height="543.6" width="1116" x="46.31125" y="11.379141"/>
  </clipPath>
 </defs>
</svg>
